<?xml version="1.0" encoding="UTF-8" standalone="no"?>
<!-- Generator: Adobe Illustrator 26.4.1, SVG Export Plug-In . SVG Version: 6.00 Build 0)  -->

<svg
   version="1.1"
   id="uuid-5cc83907-b178-4d0d-bc25-25ebc2bd5a4e"
   x="0px"
   y="0px"
   viewBox="0 0 549.29235 512.00002"
   xml:space="preserve"
   width="549.29236"
   height="512"
   xmlns="http://www.w3.org/2000/svg"
   xmlns:svg="http://www.w3.org/2000/svg"><defs
   id="defs1" />&#10;<path
   d="m 494.44253,433.59859 c 10.93824,-15.72372 16.92009,-34.35291 16.92009,-54.00756 0,-19.31282 -5.81094,-37.94201 -16.57827,-53.49482 V 0 H 0 v 459.74781 h 366.77279 c 14.86916,9.40004 32.13108,14.35643 50.07662,14.35643 19.48374,0 38.28384,-5.98184 54.00755,-16.92008 l 54.34937,54.34937 23.58558,-23.58558 z M 412.57666,37.429283 h 44.77841 v 42.214761 h -44.77841 z m -375.147377,0 H 375.14738 V 79.644044 H 37.429283 Z M 332.59079,422.31853 H 37.429283 V 117.07332 H 457.35507 v 177.23364 c -12.47643,-5.98184 -26.14922,-9.05823 -40.50566,-9.05823 -25.29468,0 -48.88025,9.74187 -66.8258,27.68742 -17.77463,17.77464 -27.68741,41.53113 -27.68741,66.82579 0,15.04008 3.58911,29.56743 10.25459,42.55659 z m 84.25862,24.0983 c -36.91655,0 -66.65489,-29.90924 -66.65489,-66.65489 0,-36.74564 29.90925,-66.65488 66.65489,-66.65488 36.74564,0 66.65489,29.90924 66.65489,66.65488 0,36.74565 -29.73833,66.65489 -66.65489,66.65489 z"
   id="path1"
   style="stroke-width:1.7091" />&#10;</svg>
